<svg version="1.1" xmlns="http://www.w3.org/2000/svg" xmlns:xlink="http://www.w3.org/1999/xlink">
    <symbol id="logo" viewBox="0 0 433 100">
        <path d="M93.55 47.53L87.71 77.35L86.98 78.53L87.45 80.61L90.04 83.96L98.94 43.97L93.55 47.53Z" fill="#F68A53"/>
        <path d="M90.7401 40.98L92.7101 44.12L93.1801 45.15L96.8401 43.83L90.3301 37.33L90.7401 40.99V40.98ZM80.9801 44.64C81.8301 44.41 85.3401 44.69 87.4301 43.35C89.8801 41.78 90.0301 38.43 90.3001 37.01C91.2101 32.18 82.7101 30.18 78.4101 27.7C75.0501 25.76 68.4201 22.28 63.6201 22.15L80.9801 44.65V44.64Z" fill="#F68A53"/>
        <path d="M65.94 19.02H68.03C68.99 17.21 69.6 15.63 69.6 12.92C69.48 9.6 64.23 0.44 60.25 2.75C63.15 4.29 67.16 7.83 67.16 12.1C67.16 14.74 66.61 16.51 65.94 19.01V19.02Z" fill="#E2D3B4"/>
        <path d="M22.02 27.83C24.48 27.63 34.82 24.55 38.95 23.75C47.03 22.19 54.1 21.44 62.29 21.32C64.83 21.63 73.27 23.5 80.75 25.12C87.35 26.55 93.21 27.78 93.58 27.56C87.29 23.06 74.16 19.27 60.26 19.14C46.35 19.01 31.4 21.78 22.01 27.83H22.02Z" fill="#F68A53"/>
        <path d="M93.69 44.97L90.74 40.98V45.05H91.96C92.75 45.05 93.05 44.78 93.69 44.97Z" fill="#F47721"/>
        <path d="M87.0801 44.64C85.6201 44.98 85.1701 45.45 83.4201 45.45C78.4701 45.45 73.9901 43.42 69.1901 43.42C68.0601 43.42 66.8501 44.36 66.3401 45.05C70.5501 43.41 75.4201 47.69 79.7601 47.69C82.2601 47.69 85.4001 46.92 87.0801 44.64Z" fill="#F68A53"/>
        <path d="M40.3199 47.8C44.6299 47.8 47.8199 44.64 53.7399 44.64C52.9999 43.99 51.6199 42.74 50.2199 42.74C46.4899 42.74 43.8699 45.45 40.3299 45.45C37.8499 45.45 35.8499 45.2 33.4199 44.64C34.7799 46.48 37.8899 47.72 40.3299 47.8H40.3199Z" fill="#F68A53"/>
        <path d="M13.0801 38.95C13.0801 41.82 26.7801 45.46 30.5601 45.46C29.5801 43.41 30.2501 38.21 31.3701 36.92C31.3701 40.87 34.3101 44.65 37.8701 44.65H38.2801C43.0901 44.65 47.5401 42.61 52.5101 42.61C55.0201 42.61 58.3501 45.49 59.4201 47.08C52.4601 47.08 47.6501 47.23 44.7801 51.15L46.0001 51.56C50.3401 51.5 52.3301 48.41 53.3201 47.9H67.9601C67.4001 48.77 70.4801 50.82 73.1201 51.18L76.5001 51.15C73.8901 47.58 65.8601 44.4 62.2701 47.49C62.8701 44.93 66.4501 42.61 69.5901 42.61H72.4301C74.1001 42.61 78.7201 43.66 80.9701 43.85C77.1101 35.27 75.1501 34.35 73.7701 32.74C72.1501 30.85 70.9801 29.42 63.6201 22.14C68.4101 22.28 75.0501 25.75 78.4101 27.69C82.6501 30.14 86.8601 34.47 89.9301 36.1V37.32H90.3401L97.3601 44.34C99.5801 44.15 106.2 41.03 106.2 38.95C106.2 35.37 96.5001 29.1 93.5901 27.57C85.4701 24.83 82.5301 21.69 62.2901 21.32C47.2701 21.21 13.0401 23.78 13.0801 38.95Z" fill="#F47721"/>
        <path d="M14.9299 50.68C16.5799 51.5 17.9899 53.24 17.9899 55.23C17.9799 57.09 16.9599 58.04 16.1499 58.89L18.3599 72.28C18.3599 74.39 20.6499 81.34 21.4699 83C22.9999 86.12 25.0299 88.85 29.3399 88.95L30.5599 83.25C31.5699 81.65 31.2699 77.96 33.8099 77.96H34.6199C36.2399 77.96 47.8899 94.46 49.0699 95.21L52.3599 95.44C55.1899 95.64 53.7999 88.32 53.7099 83.83C53.6399 80.21 61.8299 81.18 62.9199 83.81C63.4099 85.16 62.8199 87.09 63.4799 88.13L63.1499 95.13L66.3599 95.4L78.9399 79.18L78.4799 77.09L79.1999 75.9L81.3899 53.62L84.5999 53.12L85.0399 52.33C84.1299 52.54 84.1099 52.74 83.0099 52.74H81.7899C79.1799 52.74 78.5499 51.59 76.4999 51.11H74.8799L46.0099 51.52L44.7899 51.11C42.7399 51.59 42.1199 52.74 39.4999 52.74H38.6899C33.8399 52.74 32.9799 49.36 30.9599 47.04L31.8199 49.87L15.4599 45.6L14.9299 50.64V50.68Z" fill="#F47721"/>
        <path d="M2.30005 58.21C2.81005 58.43 4.89005 55.3 6.48005 54.3C7.85005 53.43 10.14 52.77 12.27 52.77C13.41 52.77 14.44 53.05 15.55 53.15C14.33 51.45 11.42 51.37 9.52005 51.64C8.97005 51.71 8.42005 51.86 7.89005 52.05C6.69005 52.49 5.54005 53.26 4.60005 54.17C3.44005 55.31 2.58005 57.05 2.31005 58.21H2.30005Z" fill="#F68A53"/>
        <path d="M102.03 56.02C105.78 56.02 111.89 57.7 111.89 61.3V61.71C111.64 63.74 109.28 64.13 109.05 67C111.45 65.85 115.91 63.64 115.91 59.49C115.91 55.34 113.16 51.7 109.29 51.63C102.59 50.76 102.04 53.31 102.04 56.02H102.03Z" fill="#F47721"/>
        <path d="M85.05 52.36L81.46 52.43L79.21 75.93L78.48 77.12L78.95 79.2L85.45 77.98L89.93 49.52H88.71L85.05 52.36Z" fill="#F68A53"/>
        <path d="M109.04 67.01C109.25 64.41 111.88 64.34 111.88 61.32C111.88 57.88 108.31 55.7 103.67 56C102.69 56.07 102.36 53.89 103.61 52.61C104.49 51.71 106.34 51.57 108.53 51.64C111.28 52.01 114.48 53.93 115.35 57.04C116.85 62.39 113.17 65.03 109.04 67.01ZM100.5 68.23C98.56 76.58 98.35 88.2 89.11 88.97L87.24 95.31C90.19 95.01 109.96 91.09 98.46 87.75L96.43 86.93C99.23 82.75 100.14 81.05 101.46 75.39C102.45 80.65 113.01 79.73 112.28 71.89C110.62 74.77 104.96 75.02 104.96 71.48C104.96 68.59 118.14 69.51 118.14 58.23C117.79 54.04 112.45 49.52 107.81 49.52C105.02 49.52 103.33 50.67 101.31 51.14C100.58 52.52 100.09 53.88 100.09 56.02V59.27H101.38L100.5 68.22V68.23ZM102.12 68.23C103.07 64.69 103.76 61.83 104.15 58.06C106.94 58.06 110.59 59.51 109.42 62.64C109.03 67.01 103.18 67.45 102.11 68.23H102.12Z" fill="#2D2C2B"/>
        <path d="M8.2 67.01C-1.73 66.55 1.37 51.22 11.04 51.56C12.83 51.56 15.92 52.07 15.92 54.41C15.96 55.81 15.25 56.07 14.77 56.06C13.74 56.02 5.65 56.66 5.1 61.64C5.1 63.65 6.98 64.98 8.2 65.8V67.02V67.01ZM9.42 64.16C8.33 63.66 7.1 62.86 7.1 61.53C7.17 59.46 11.64 58.06 13.86 58.07L15.52 67.82L9.42 64.16ZM18.36 72.29C17.62 67.83 16.89 63.36 16.15 58.9C19.37 55.99 17.92 52.5 15.16 50.69C13.71 49.74 11.84 49.52 10.23 49.52C5.04 49.59 0 54.28 0 60.43C0 64.4 3.58 67.3 6.93 68.77C9.89 70.06 12.67 70.03 12.67 71.48V71.89C12.67 73.2 11.19 73.93 9.82 73.93H9.41C7.5 73.93 6.5 72.66 5.34 71.89C5.34 75.33 8.01 77.99 11.03 77.99C17.94 77.99 17.22 69.85 21.19 86.94C19.28 87.1 15.09 88.38 15.09 90.19C15.09 93.72 26.07 95.07 29.32 95.07V88.97C25 88.87 22.98 86.13 21.45 83.02C20.64 81.36 18.34 74.41 18.34 72.3L18.36 72.29Z" fill="#2D2C2B"/>
        <path d="M2.82005 57.15C1.52005 59.2 1.74005 62.29 3.08005 64.33C4.19005 66.01 6.24005 66.96 8.20005 67.01V65.79C5.42005 63.93 4.77005 62.2 5.31005 60.7C6.26005 58.03 11.05 56.15 14.74 56.05C16.26 56 15.93 54.4 15.93 54.4C15.93 53.61 15.69 53.29 15.56 53.15C14.45 53.06 13.42 52.77 12.28 52.77C10.15 52.77 7.86005 53.43 6.49005 54.3C4.90005 55.3 3.33005 57.37 2.83005 57.14L2.82005 57.15Z" fill="#F47721"/>
        <path d="M89.93 48.43L85.46 77.98L87.09 78.79C89.01 76.58 93.88 53.64 94 48.3L89.93 48.43Z" fill="#F47721"/>
        <path d="M97.65 47.49C95.81 57.93 94.44 67.9 90.54 77.79C88.03 84.15 89.11 81.68 89.11 88.97C98.35 88.2 98.55 76.58 100.5 68.23L101.38 59.29C100.52 58.75 100.09 57.66 100.09 56.03C100.09 53.89 101.59 51.08 102.57 50.78L102.12 45.87L97.65 47.49Z" fill="#F47721"/>
        <path d="M66.34 45.05C66.85 44.36 68.06 43.42 69.19 43.42C73.99 43.42 78.47 45.45 83.42 45.45C85.17 45.45 85.62 44.98 87.08 44.64C83.53 49.49 72.77 44.64 67.97 44.64C67.87 44.64 66.47 44.99 66.35 45.05H66.34ZM43.17 9.67C43.17 13.41 44.15 14.65 46.42 16.17C46.42 11.42 48.32 7.63 52.93 7.63H54.15C57.18 7.56 59.84 11.7 59.84 14.95C59.84 16.91 58.58 17.82 57.4 18.61C45.56 18.61 11.04 24.59 11.04 38.94C11.04 40.03 11.63 40.14 12.26 40.57V42.6C12.75 43.34 13.07 43.31 13.07 44.23L12.99 50.1L15 50.59L15.45 45.64C22.42 47.45 35.16 52.77 39.09 52.77C43.02 52.77 46.36 49.88 49.82 48.3C52.52 47.07 55.51 47.07 59.42 47.07C58.35 45.48 56.65 41.95 52.11 41.69C46.18 41.25 43.23 44.63 37.87 44.63C34.31 44.63 31.37 40.86 31.37 36.9C30.25 38.19 29.57 43.39 30.56 45.44C26.77 45.44 13.08 41.8 13.08 38.93C13.08 27.22 36.41 21.56 52.47 19.97C65.75 18.66 81.95 21.38 93.59 27.54C96.5 29.08 106.2 35.35 106.2 38.92C106.2 42.08 93.82 45.02 90.75 45.02V40.95L90.15 35.54C88.69 47.57 79.81 42.14 72.45 42.14C68.76 42.14 63.34 42.95 62.29 47.45C70.18 44.73 75.14 53.33 81.6 53.59C83.75 53.68 86.8 52.05 88.72 49.48L94.01 48.26L97.67 47.44L102.14 45.82V51.37L104.99 50.15V44.15C107.84 43.39 109.13 40.51 108.34 38.13C107.51 35.64 103.71 32.91 101.73 31.18C94.01 25 83.61 21.06 70.52 18.95C71.82 14.28 71.47 9.6 69.18 6.53C62.46 -2.49 44.22 -2.93 43.18 9.63L43.17 9.67ZM65.94 19.02C66.61 16.52 67.16 14.74 67.16 12.11C67.16 7.84 63.15 4.29 60.25 2.76C68.23 3.61 71.12 13.17 68.03 19.03H65.94V19.02ZM40.32 47.54C37.62 47.48 34.82 46.56 33.41 44.64C35.84 45.21 36.73 46.4 40.32 45.74C44.16 45.23 47.11 43.38 50.89 43.38C52.29 43.38 52.99 43.99 53.74 44.64C47.83 44.64 44.63 47.54 40.32 47.54Z" fill="#2D2C2B"/>
        <path d="M46.01 51.55C56.78 52.83 63 52.96 73.71 51.32C71.86 50.97 69.51 49.27 67.96 47.89H53.32C52.43 48.33 49.1 50.84 46 51.55H46.01Z" fill="#2D2C2B"/>
        <path d="M55.5799 80.92H60.0899C61.9599 80.92 63.4999 81.66 63.4999 83.53V93.68C63.4999 95.55 61.9699 97.09 60.0899 97.09H55.5799C53.7099 97.09 52.1699 95.55 52.1699 93.68V83.53C52.1699 81.66 53.6999 80.92 55.5799 80.92Z" fill="#2D2C2B"/>
        <path d="M55.5799 80.92H60.0899C61.9599 80.92 63.4999 81.66 63.4999 83.53V93.68C63.4999 95.55 61.9699 97.09 60.0899 97.09H55.5799C53.7099 97.09 52.1699 95.55 52.1699 93.68V83.53C52.1699 81.66 53.6999 80.92 55.5799 80.92Z" stroke="#2D2C2B" stroke-width="0.22"/>
        <path d="M47.44 95.76C41.05 97.18 36.03 95.74 29.65 98.59C24.98 94.07 25.26 81.05 30.91 73.05C36.88 75.4 43.04 80.19 50.02 83.53L49.2 93.68C49.16 94.23 49.4 95.25 47.44 95.76Z" fill="#2D2C2B"/>
        <path d="M47.44 95.76C41.05 97.18 36.03 95.74 29.65 98.59C24.98 94.07 25.26 81.05 30.91 73.05C36.88 75.4 43.04 80.19 50.02 83.53L49.2 93.68C49.16 94.23 49.4 95.25 47.44 95.76V95.76Z" stroke="#2D2C2B" stroke-width="0.22"/>
        <path d="M67.1199 95.02C74.0299 95.68 81.2499 97.21 87.8199 99.12C91.6199 90.83 91.0399 81.05 85.3899 73.05C79.8099 75.25 69.6399 80.8 65.6399 83.53L66.0999 92.5C66.1199 92.96 66.1399 94.59 67.1199 95.02Z" fill="#2D2C2B"/>
        <path d="M67.1199 95.02C74.0299 95.68 81.2499 97.21 87.8199 99.12C91.6199 90.83 91.0399 81.05 85.3899 73.05C79.8099 75.25 69.6399 80.8 65.6399 83.53L66.0999 92.5C66.1199 92.96 66.1399 94.59 67.1199 95.02V95.02Z" stroke="#2D2C2B" stroke-width="0.22"/>
        <path d="M29.2799 90.14C29.2799 72.74 35.0699 82.34 43.6099 82.53C41.4699 81.05 34.6399 75.49 30.9099 75.49C28.3399 80.37 27.4499 87.26 29.2799 90.14Z" fill="#E9D9B9"/>
        <path d="M70.8301 82.96L81.3801 78.56C87.4801 78.56 86.2001 84.91 88.0001 87.51C88.8901 83.24 87.3501 77.49 84.1801 75.2L70.8401 82.96H70.8301Z" fill="#EEEAD4"/>
        <path d="M87.1099 34.03C87.1999 31.82 81.9899 29.67 75.4999 29.26C68.9999 28.86 63.5499 30.36 63.3899 32.57C65.2999 31.16 70.0199 30.34 75.4199 30.67C80.8099 31 85.3799 32.39 87.1199 34.03H87.1099Z" fill="#2D2C2B"/>
        <path d="M87.1099 34.03C87.1999 31.82 81.9899 29.67 75.4999 29.26C68.9999 28.86 63.5499 30.36 63.3899 32.57C65.2999 31.16 70.0199 30.34 75.4199 30.67C80.8099 31 85.3799 32.39 87.1199 34.03H87.1099Z" stroke="#2D2C2B" stroke-width="0.22"/>
        <path d="M33.6201 34.07C33.5201 31.87 38.7401 29.71 45.2301 29.31C51.7301 28.91 57.1901 30.41 57.3401 32.61C55.4301 31.2 50.7101 30.38 45.3101 30.71C39.9201 31.05 35.3501 32.43 33.6201 34.07Z" fill="#2D2C2B"/>
        <path d="M33.6201 34.07C33.5201 31.87 38.7401 29.71 45.2301 29.31C51.7301 28.91 57.1901 30.41 57.3401 32.61C55.4301 31.2 50.7101 30.38 45.3101 30.71C39.9201 31.05 35.3501 32.43 33.6201 34.07Z" stroke="#2D2C2B" stroke-width="0.22"/>
        <path d="M133.2 74.01V47.12C133.2 45.93 132.69 45.08 131.66 44.56C130.63 44.03 130.12 43.41 130.12 42.7C130.12 41.66 130.95 41.13 132.6 41.13H147.5C149.08 41.13 149.87 41.65 149.87 42.7C149.87 43.45 149.36 44.09 148.33 44.61C147.31 45.13 146.79 45.97 146.79 47.12V58.46H148.57C152.28 58.46 154.13 56.75 154.13 53.33V49.39C154.13 43.63 156.7 40.75 161.85 40.75C164.05 40.75 165.79 41.25 167.08 42.26C168.52 43.34 169.24 44.96 169.24 47.12C169.24 48.38 168.78 49.47 167.84 50.39C166.9 51.31 165.8 51.76 164.55 51.76C163.36 51.76 162.35 51.45 161.53 50.84C160.56 50.12 160.07 49.2 160.07 48.09C160.07 47.3 160.26 46.74 160.64 46.41C161.01 46.09 161.21 45.75 161.21 45.39C161.21 44.56 160.83 44.15 160.08 44.15C159.33 44.15 158.76 44.44 158.4 45.01C157.97 45.69 157.75 48.29 157.75 52.79C157.75 53.9 157.57 55.07 157.21 56.3C156.82 57.63 156.2 58.55 155.38 59.05C158.11 59.41 160.4 60.29 162.23 61.69C164.43 63.35 165.52 65.45 165.52 68.01V72.55C165.52 73.52 165.81 74.01 166.39 74.01C166.75 74.01 167.16 73.76 167.63 73.25C168.09 72.75 168.55 72.5 168.98 72.5C170.13 72.5 170.71 73 170.71 74.01C170.71 74.62 170.51 75.31 170.12 76.06C169.36 77.46 168.08 78.56 166.28 79.35C164.73 80.03 163.06 80.38 161.26 80.38C155.35 80.38 152.41 77.21 152.41 70.87V66.93C152.34 65.13 152.06 63.85 151.57 63.1C151.09 62.34 150.36 61.89 149.39 61.75C149.17 61.71 148.31 61.69 146.8 61.69V74.44C146.8 75.37 147.32 76.08 148.34 76.57C149.37 77.06 149.88 77.66 149.88 78.38C149.88 79.46 149.09 80 147.51 80H132.61C130.95 80 130.13 79.46 130.13 78.38C130.13 77.66 130.64 77.06 131.67 76.57C132.7 76.09 133.21 75.23 133.21 74.01H133.2ZM173.37 42.69C173.37 41.65 174.18 41.12 175.8 41.12H190.92C192.9 41.12 193.89 41.62 193.89 42.63C193.89 43.39 193.28 44.02 192.06 44.52C190.83 45.02 190.22 45.8 190.22 46.84V69.79C190.22 72.34 190.54 74.07 191.19 74.97C192.02 76.05 193.64 76.59 196.05 76.59C198.68 76.59 200.43 75.88 201.31 74.46C202.19 73.04 202.64 70.69 202.64 67.41V49.92C202.64 48.19 202.23 46.88 201.4 45.98C201.08 45.65 200.32 45.17 199.13 44.52C198.3 44.09 197.89 43.55 197.89 42.9C197.89 41.71 198.7 41.12 200.32 41.12H208.85C210.44 41.12 211.23 41.71 211.23 42.9C211.23 43.66 210.89 44.2 210.2 44.52C209.34 44.95 208.56 45.42 207.88 45.92C206.95 46.64 206.48 48.46 206.48 51.37V67.73C206.48 70.18 206.27 72.22 205.83 73.83C205.08 76.71 203.2 78.65 200.22 79.66C198.28 80.31 195.43 80.63 191.69 80.63C181.5 80.63 176.41 76.51 176.41 68.26V47.09C176.41 45.9 175.91 45.05 174.9 44.53C173.89 44 173.39 43.38 173.39 42.67L173.37 42.69ZM230.28 58.13H236.6V46.52C236.6 45.69 236.25 44.97 235.55 44.33C234.85 43.7 234.49 43.08 234.49 42.47C234.49 41.57 235.08 41.12 236.27 41.12H250.9C252.45 41.12 253.22 41.64 253.22 42.69C253.22 43.41 252.72 44.04 251.71 44.58C250.71 45.12 250.2 45.97 250.2 47.12V74.45C250.2 75.38 250.71 76.09 251.71 76.58C252.72 77.07 253.22 77.67 253.22 78.39C253.22 79.47 252.45 80.01 250.9 80.01H236.27C235.08 80.01 234.49 79.54 234.49 78.61C234.49 78.03 234.84 77.43 235.55 76.8C236.25 76.17 236.6 75.44 236.6 74.61V61.54H230.28V74.55C230.28 75.52 230.64 76.32 231.36 76.95C232.08 77.58 232.44 78.13 232.44 78.6C232.44 79.53 231.81 80 230.55 80H215.97C214.38 80 213.6 79.46 213.6 78.38C213.6 77.66 214.11 77.05 215.14 76.54C216.16 76.03 216.68 75.19 216.68 74V47.11C216.68 45.92 216.16 45.07 215.14 44.55C214.11 44.02 213.6 43.4 213.6 42.69C213.6 41.65 214.39 41.12 215.97 41.12H230.55C231.81 41.12 232.44 41.57 232.44 42.47C232.44 43.08 232.08 43.71 231.36 44.35C230.64 45 230.28 45.72 230.28 46.51V58.12V58.13ZM272.95 41.12L285.35 61.58V51.16C285.35 47.7 284.03 45.33 281.41 44.03C280.91 43.78 280.65 43.4 280.65 42.9C280.65 41.71 281.42 41.12 282.97 41.12H290.96C292.55 41.12 293.34 41.71 293.34 42.9C293.34 43.4 293.09 43.77 292.61 43.98C292.13 44.2 291.59 44.52 291.02 44.95C289.44 46.1 288.65 48.24 288.65 51.38V80H280.66L263.27 52.2V69.86C263.27 71.87 263.68 73.44 264.51 74.56C264.91 75.13 265.68 75.8 266.83 76.56C267.66 77.1 268.07 77.66 268.07 78.24C268.07 79.43 267.24 80.02 265.59 80.02H257.76C256.1 80.02 255.27 79.43 255.27 78.24C255.27 77.7 255.52 77.29 256.02 77C257.53 76.13 258.59 75.16 259.18 74.06C259.77 72.96 260.07 71.53 260.07 69.77V46.82C259.57 46.1 259.29 45.71 259.21 45.63C258.86 45.2 258.5 44.89 258.14 44.71C257.54 44.5 256.91 44.25 256.25 43.98C255.59 43.71 255.26 43.25 255.26 42.6C255.26 41.63 256.01 41.14 257.53 41.14H272.94L272.95 41.12ZM312.89 41.12C314.4 41.12 315.16 41.64 315.16 42.69C315.16 43.44 314.64 44.08 313.59 44.58C312.55 45.09 312.02 45.93 312.02 47.12V74.12C312.02 75.24 312.54 76.04 313.59 76.55C314.63 77.06 315.16 77.67 315.16 78.39C315.16 79.47 314.35 80.01 312.73 80.01H297.83C296.17 80.01 295.35 79.47 295.35 78.39C295.35 77.63 295.76 77.08 296.59 76.72C297.56 76.36 298.12 75.96 298.27 75.53C298.37 75.2 298.43 74.75 298.43 74.18V46.97C298.43 45.89 297.92 45.09 296.89 44.57C295.86 44.04 295.35 43.42 295.35 42.71C295.35 41.67 296.12 41.14 297.67 41.14H312.9L312.89 41.12Z" fill="#2D2C2B"/>
        <path d="M344.17 80.06H323.74V41.16H344.17V46.87H331V56.67H343.14V62.38H331V74.36H344.17V80.07V80.06ZM364.97 60.35L374.62 80.06H366.32L362.17 70.57C361.48 68.95 360.98 67.3 360.66 65.64C360.49 66.68 360.26 67.61 359.99 68.44C359.85 68.85 359.21 70.34 358.07 72.9L354.86 80.06H346.92L356.46 60.35L347.28 41.16H355.42L359.36 49.98C359.81 51.02 360.12 51.81 360.29 52.36C360.6 53.29 360.76 54.12 360.76 54.85C360.83 53.57 361.26 52.07 362.06 50.34C362.47 49.47 362.89 48.61 363.3 47.75L366.1 41.16H374.29L364.95 60.35H364.97ZM385.97 46.87V58.07H389.86C391.59 58.07 392.87 57.66 393.7 56.82C394.67 55.85 395.15 54.24 395.15 52C395.15 49.76 394.73 48.46 393.9 47.82C393.07 47.18 391.53 46.86 389.29 46.86H385.97V46.87ZM385.97 80.06H378.71V41.16H393.54C396.76 41.16 399.14 42.32 400.7 44.64C401.98 46.54 402.62 49.07 402.62 52.21C402.62 54.08 402.36 55.76 401.84 57.24C401.22 59.04 400.27 60.44 398.99 61.44C397.95 62.27 396.71 62.86 395.26 63.23C393.81 63.59 392.34 63.78 390.85 63.78H385.97V80.06ZM407.19 63.05V57.5C407.19 51.62 407.84 47.51 409.16 45.16C410.99 41.88 414.57 40.23 419.89 40.23C425.21 40.23 428.74 41.87 430.57 45.16C431.92 47.55 432.59 51.66 432.59 57.5V63.05C432.59 67.2 432.38 70.27 431.97 72.28C431.38 75.18 430.24 77.31 428.55 78.66C426.61 80.22 423.73 80.99 419.89 80.99C416.05 80.99 413.27 80.22 411.33 78.66C409.6 77.28 408.44 75.17 407.86 72.33C407.41 70.18 407.19 67.09 407.19 63.05ZM414.66 55.89V66.68C414.66 69.06 414.9 70.86 415.39 72.07C416.22 74.11 417.72 75.13 419.9 75.13C422.08 75.13 423.7 74.09 424.46 72.02C424.91 70.81 425.13 68.82 425.13 66.05V56.09C425.13 53.26 424.94 51.2 424.56 49.92C423.8 47.36 422.24 46.08 419.89 46.08C417.71 46.08 416.23 47.08 415.43 49.09C414.91 50.37 414.65 52.2 414.65 54.59V55.88L414.66 55.89Z" fill="#F68A53"/>
    </symbol>

    <symbol id="search-list" viewBox="0 0 23 16">
        <path d="M1 2H19C19.55 2 20 1.55 20 1C20 0.45 19.55 0 19 0H1C0.45 0 0 0.45 0 1C0 1.55 0.45 2 1 2Z"/>
        <path d="M8 6H1C0.45 6 0 6.45 0 7C0 7.55 0.45 8 1 8H8C8.55 8 9 7.55 9 7C9 6.45 8.55 6 8 6Z"/>
        <path d="M8 12H1C0.45 12 0 12.45 0 13C0 13.55 0.45 14 1 14H8C8.55 14 9 13.55 9 13C9 12.45 8.55 12 8 12Z"/>
        <path d="M21.71 14.29L20.03 12.61C20.64 11.72 21 10.65 21 9.5C21 6.47 18.53 4 15.5 4C12.47 4 10 6.47 10 9.5C10 12.53 12.47 15 15.5 15C16.66 15 17.73 14.64 18.61 14.03L20.29 15.71C20.49 15.91 20.74 16 21 16C21.26 16 21.51 15.9 21.71 15.71C22.1 15.32 22.1 14.69 21.71 14.3V14.29ZM15.5 13C13.57 13 12 11.43 12 9.5C12 7.57 13.57 6 15.5 6C17.43 6 19 7.57 19 9.5C19 11.43 17.43 13 15.5 13Z"/>
    </symbol>

    <symbol id="search" viewBox="0 0 19 18">
        <path d="M17.71 16.29L13.46 12.04C14.42 10.78 15 9.21 15 7.5C15 3.36 11.64 0 7.5 0C3.36 0 0 3.36 0 7.5C0 11.64 3.36 15 7.5 15C9.21 15 10.78 14.42 12.04 13.46L16.29 17.71C16.49 17.91 16.74 18 17 18C17.26 18 17.51 17.9 17.71 17.71C18.1 17.32 18.1 16.69 17.71 16.3V16.29ZM2 7.5C2 4.47 4.47 2 7.5 2C10.53 2 13 4.47 13 7.5C13 10.53 10.53 13 7.5 13C4.47 13 2 10.53 2 7.5Z"/>
    </symbol>

    <symbol id="compare" viewBox="0 0 14 18">
        <path d="M1 10C0.45 10 0 10.45 0 11V17C0 17.55 0.45 18 1 18C1.55 18 2 17.55 2 17V11C2 10.45 1.55 10 1 10Z"/>
        <path d="M5 0C4.45 0 4 0.45 4 1V17C4 17.55 4.45 18 5 18C5.55 18 6 17.55 6 17V1C6 0.45 5.55 0 5 0Z"/>
        <path d="M9 6C8.45 6 8 6.45 8 7V17C8 17.55 8.45 18 9 18C9.55 18 10 17.55 10 17V7C10 6.45 9.55 6 9 6Z"/>
        <path d="M13 3C12.45 3 12 3.45 12 4V17C12 17.55 12.45 18 13 18C13.55 18 14 17.55 14 17V4C14 3.45 13.55 3 13 3Z"/>
    </symbol>

    <symbol id="user" viewBox="0 0 18 20">
        <path d="M9 11C11.82 11 14 7.77 14 5C14 2.23 11.76 0 9 0C6.24 0 4 2.24 4 5C4 7.76 6.18 11 9 11ZM9 2C10.65 2 12 3.35 12 5C12 6.75 10.54 9 9 9C7.46 9 6 6.75 6 5C6 3.35 7.35 2 9 2Z"/>
        <path d="M11 12H7C3.14 12 0 15.14 0 19C0 19.55 0.45 20 1 20C1.55 20 2 19.55 2 19C2 16.24 4.24 14 7 14H11C13.76 14 16 16.24 16 19C16 19.55 16.45 20 17 20C17.55 20 18 19.55 18 19C18 15.14 14.86 12 11 12Z"/>
    </symbol>

    <symbol id="basket" viewBox="0 0 19 20">
        <path d="M17.01 4.00001L5.47 3.96001L5.25 2.55001C5.02 1.08001 3.78 0.0100098 2.29 0.0100098H1C0.45 0.0100098 0 0.46001 0 1.01001C0 1.56001 0.45 2.01001 1 2.01001H2.28C2.78 2.01001 3.19 2.37001 3.27 2.86001L5.01 14.16C5.05 14.42 5.2 14.66 5.41 14.82C5.58 14.94 5.79 15.01 6 15.01C6.05 15.01 6.11 15.01 6.16 15L16.49 13.28C17.94 13.04 19 11.79 19 10.32V6.00001C19 4.90001 18.11 4.00001 17.01 4.00001ZM17.01 10.31C17.01 10.8 16.66 11.22 16.18 11.3L6.85 12.85L5.79 5.96001L17.02 6.00001V10.31H17.01Z"/>
        <path d="M17 20C18.1046 20 19 19.1046 19 18C19 16.8954 18.1046 16 17 16C15.8954 16 15 16.8954 15 18C15 19.1046 15.8954 20 17 20Z"/>
        <path d="M6 20C7.10457 20 8 19.1046 8 18C8 16.8954 7.10457 16 6 16C4.89543 16 4 16.8954 4 18C4 19.1046 4.89543 20 6 20Z"/>
    </symbol>

    <symbol id="dots" viewBox="0 0 3 11">
        <path d="M1.65991 0.399994C1.10991 0.399994 0.659912 0.849993 0.659912 1.39999V1.49999C0.659912 2.04999 1.10991 2.49999 1.65991 2.49999C2.20991 2.49999 2.65991 2.04999 2.65991 1.49999V1.39999C2.65991 0.849993 2.20991 0.399994 1.65991 0.399994Z"/>
        <path d="M1.65991 4.39999C1.10991 4.39999 0.659912 4.84999 0.659912 5.39999V5.49999C0.659912 6.04999 1.10991 6.49999 1.65991 6.49999C2.20991 6.49999 2.65991 6.04999 2.65991 5.49999V5.39999C2.65991 4.84999 2.20991 4.39999 1.65991 4.39999Z"/>
        <path d="M1.65991 8.39999C1.10991 8.39999 0.659912 8.84999 0.659912 9.39999V9.49999C0.659912 10.05 1.10991 10.5 1.65991 10.5C2.20991 10.5 2.65991 10.05 2.65991 9.49999V9.39999C2.65991 8.84999 2.20991 8.39999 1.65991 8.39999Z"/>
    </symbol>

    <symbol id="chevron" viewBox="0 0 9 15">
        <path d="M2.00006 14C1.74006 14 1.49006 13.9 1.29006 13.71C0.900059 13.32 0.900059 12.69 1.29006 12.3L6.58006 7.01L1.29006 1.72C0.900059 1.33 0.900059 0.700002 1.29006 0.310002C1.68006 -0.0799982 2.31006 -0.0799982 2.70006 0.310002L8.70006 6.31C9.09006 6.7 9.09006 7.33 8.70006 7.72L2.70006 13.72C2.50006 13.92 2.25006 14.01 1.99006 14.01L2.00006 14Z"/>
    </symbol>

    <symbol id="download" viewBox="0 0 20 20">
        <path d="M19 9C18.45 9 18 9.45 18 10V18H2V10C2 9.45 1.55 9 1 9C0.45 9 0 9.45 0 10V19C0 19.55 0.45 20 1 20H19C19.55 20 20 19.55 20 19V10C20 9.45 19.55 9 19 9Z"/>
        <path d="M9.28007 14.69C9.38007 14.79 9.49007 14.87 9.62007 14.92C9.71007 14.96 9.80007 14.96 9.89007 14.97C9.93007 14.97 9.96007 14.99 10.0001 14.99C10.1301 14.99 10.2601 14.96 10.3801 14.91C10.4101 14.9 10.4301 14.87 10.4601 14.86C10.5501 14.81 10.6301 14.77 10.7101 14.7L15.2101 10.2C15.6001 9.81 15.6001 9.18 15.2101 8.79C14.8201 8.4 14.1901 8.4 13.8001 8.79L11.0001 11.59V1C11.0001 0.45 10.5501 0 10.0001 0C9.45007 0 9.00007 0.45 9.00007 1V11.58L6.21007 8.79C5.82007 8.4 5.19007 8.4 4.80007 8.79C4.41007 9.18 4.41007 9.81 4.80007 10.2L9.29007 14.69H9.28007Z"/>
    </symbol>

    <symbol id="gift" viewBox="0 0 22 21">
        <path d="M21 5.00001H12.41L15.7 1.71001C16.09 1.32001 16.09 0.690007 15.7 0.300007C15.31 -0.0899927 14.68 -0.0899927 14.29 0.300007L11 3.59001L7.71 0.300007C7.32 -0.0899927 6.69 -0.0899927 6.3 0.300007C5.91 0.690007 5.91 1.32001 6.3 1.71001L9.59 5.00001H1C0.45 5.00001 0 5.45001 0 6.00001V10C0 10.55 0.45 11 1 11V20C1 20.55 1.45 21 2 21H20C20.55 21 21 20.55 21 20V11C21.55 11 22 10.55 22 10V6.00001C22 5.45001 21.55 5.00001 21 5.00001ZM2 7.00001H20V9.00001H2V7.00001ZM3 11H10V19H3V11ZM19 19H12V11H19V19Z"/>
    </symbol>

    <symbol id="list" viewBox="0 0 18 22">
        <path fill-rule="evenodd" clip-rule="evenodd" d="M16 0H2C0.9 0 0 0.9 0 2V20C0 21.1 0.9 22 2 22H16C17.1 22 18 21.1 18 20V2C18 0.9 17.1 0 16 0ZM16 20H2V2H16V20Z"/>
        <path fill-rule="evenodd" clip-rule="evenodd" d="M7.5 7H13.5C14.05 7 14.5 6.55 14.5 6C14.5 5.45 14.05 5 13.5 5H7.5C6.95 5 6.5 5.45 6.5 6C6.5 6.55 6.95 7 7.5 7Z"/>
        <path fill-rule="evenodd" clip-rule="evenodd" d="M7.5 12H13.5C14.05 12 14.5 11.55 14.5 11C14.5 10.45 14.05 10 13.5 10H7.5C6.95 10 6.5 10.45 6.5 11C6.5 11.55 6.95 12 7.5 12Z"/>
        <path fill-rule="evenodd" clip-rule="evenodd" d="M7.5 17H13.5C14.05 17 14.5 16.55 14.5 16C14.5 15.45 14.05 15 13.5 15H7.5C6.95 15 6.5 15.45 6.5 16C6.5 16.55 6.95 17 7.5 17Z"/>
        <path d="M4.5 7C5.05228 7 5.5 6.55228 5.5 6C5.5 5.44772 5.05228 5 4.5 5C3.94772 5 3.5 5.44772 3.5 6C3.5 6.55228 3.94772 7 4.5 7Z"/>
        <path d="M4.5 12C5.05228 12 5.5 11.5523 5.5 11C5.5 10.4477 5.05228 10 4.5 10C3.94772 10 3.5 10.4477 3.5 11C3.5 11.5523 3.94772 12 4.5 12Z"/>
        <path d="M4.5 17C5.05228 17 5.5 16.5523 5.5 16C5.5 15.4477 5.05228 15 4.5 15C3.94772 15 3.5 15.4477 3.5 16C3.5 16.5523 3.94772 17 4.5 17Z"/>
    </symbol>

    <symbol id="edit" viewBox="0 0 21 20">
        <path d="M19.5 18H1.5C0.95 18 0.5 18.45 0.5 19C0.5 19.55 0.95 20 1.5 20H19.5C20.05 20 20.5 19.55 20.5 19C20.5 18.45 20.05 18 19.5 18Z"/>
        <path d="M3.5 16H7.16C7.43 16 7.68 15.89 7.87 15.71L18.21 5.36001C18.6 4.97002 18.6 4.34001 18.21 3.95001L14.56 0.300015C14.18 -0.0799854 13.52 -0.0799854 13.14 0.300015L2.79 10.65C2.6 10.84 2.5 11.09 2.5 11.36V15C2.5 15.55 2.95 16 3.5 16ZM4.5 11.77L13.85 2.41001L16.09 4.65001L6.75 14H4.51V11.77H4.5Z"/>
    </symbol>

    <symbol id="lock" viewBox="0 0 20 22">
        <path d="M18 9H16V6C16 2.69 13.31 0 10 0C6.69 0 4 2.69 4 6V9H2C0.9 9 0 9.9 0 11V20C0 21.1 0.9 22 2 22H18C19.1 22 20 21.1 20 20V11C20 9.9 19.1 9 18 9ZM6 6C6 3.79 7.79 2 10 2C12.21 2 14 3.79 14 6V9H6V6ZM18 20H2V11H18V20Z"/>
        <path d="M10 13C9.45 13 9 13.45 9 14V17C9 17.55 9.45 18 10 18C10.55 18 11 17.55 11 17V14C11 13.45 10.55 13 10 13Z"/>
    </symbol>

    <symbol id="arrow" viewBox="0 0 12 12">
        <path d="M11.2101 5.29C10.8201 4.9 10.1901 4.9 9.80008 5.29L7.01008 8.08V1.5C7.01008 0.95 6.56008 0.5 6.01008 0.5C5.46008 0.5 5.01008 0.95 5.01008 1.5V8.09L2.22008 5.3C1.83008 4.91 1.20008 4.91 0.810078 5.3C0.420078 5.69 0.420078 6.32 0.810078 6.71L5.31008 11.21C5.40008 11.3 5.51008 11.38 5.64008 11.43C5.76008 11.48 5.89008 11.51 6.02008 11.51C6.15008 11.51 6.28008 11.48 6.40008 11.43C6.52008 11.38 6.63008 11.31 6.73008 11.21L11.2301 6.71C11.6201 6.32 11.6201 5.69 11.2301 5.3L11.2101 5.29Z"/>
    </symbol>

    <symbol id="chevron-down" viewBox="0 0 12 7">
        <path d="M6.00006 6.50001C5.74006 6.50001 5.49006 6.40001 5.29006 6.21001L0.790059 1.71001C0.400059 1.32001 0.400059 0.690007 0.790059 0.300007C1.18006 -0.0899927 1.81006 -0.0899927 2.20006 0.300007L5.99006 4.09001L9.78006 0.300007C10.1701 -0.0899927 10.8001 -0.0899927 11.1901 0.300007C11.5801 0.690007 11.5801 1.32001 11.1901 1.71001L6.69006 6.21001C6.49006 6.41001 6.24006 6.50001 5.98006 6.50001H6.00006Z"/>
    </symbol>


    <symbol id="close" viewBox="0 0 9 8">
        <path d="M5.41007 4.00001L7.70007 1.71001C8.09007 1.32001 8.09007 0.690007 7.70007 0.300007C7.31007 -0.0899927 6.68007 -0.0899927 6.29007 0.300007L4.00007 2.59001L1.71007 0.300007C1.32007 -0.0899927 0.690068 -0.0899927 0.300068 0.300007C-0.0899316 0.690007 -0.0899316 1.32001 0.300068 1.71001L2.59007 4.00001L0.300068 6.29001C-0.0899316 6.68001 -0.0899316 7.31001 0.300068 7.70001C0.500068 7.90001 0.750068 7.99001 1.01007 7.99001C1.27007 7.99001 1.52007 7.89001 1.72007 7.70001L4.01007 5.41001L6.30007 7.70001C6.50007 7.90001 6.75007 7.99001 7.01007 7.99001C7.27007 7.99001 7.52007 7.89001 7.72007 7.70001C8.11007 7.31001 8.11007 6.68001 7.72007 6.29001L5.43007 4.00001H5.41007Z"/>
    </symbol>

    <symbol id="stock" viewBox="0 0 18 18">
        <path d="M17 8H14V1C14 0.45 13.55 0 13 0H5C4.45 0 4 0.45 4 1V8H1C0.45 8 0 8.45 0 9V17C0 17.55 0.45 18 1 18H17C17.55 18 18 17.55 18 17V9C18 8.45 17.55 8 17 8ZM6 2H8V3C8 3.55 8.45 4 9 4C9.55 4 10 3.55 10 3V2H12V8H6V2ZM2 10H4V11C4 11.55 4.45 12 5 12C5.55 12 6 11.55 6 11V10H8V16H2V10ZM16 16H10V10H12V11C12 11.55 12.45 12 13 12C13.55 12 14 11.55 14 11V10H16V16Z"/>
    </symbol>


    <symbol id="siluet" viewBox="0 0 20 22">
        <path fill-rule="evenodd" clip-rule="evenodd" d="M5.32003 21.18C4.83003 21.13 4.54003 20.95 4.22003 20.62C3.91003 20.29 3.68003 19.68 3.26003 19.26C2.89003 18.89 2.55003 18.87 2.11003 18.45C1.67003 18.03 1.50003 17.65 1.48003 16.94C1.46003 16.15 1.64003 15.26 1.70003 14.98C1.94003 13.91 2.30003 12.77 2.47003 12.2C2.64003 11.61 2.60003 10.82 2.44003 10.19C2.26003 9.47 2.04003 8.86 1.84003 8.26C1.58003 7.49 1.42003 7.04 1.18003 6.11C1.11003 5.85 0.930034 5.04 0.900034 4.46C0.880034 4.07 1.05003 3.89 1.29003 3.82C1.51003 3.75 1.98003 3.82 2.12003 4.25C2.44003 5.24 2.52003 5.75 2.75003 6.47C2.92003 7.01 3.12003 7.54 3.30003 8.01C3.56003 8.69 4.15003 9.87 4.38003 10.05C4.71003 10.31 4.86003 10.24 5.08003 10.16C5.22003 10.11 5.49003 9.91 5.53003 9.7C5.69003 8.93 5.71003 8.22 5.82003 7.61C6.04003 6.39 6.27003 5.58 6.40003 5.03C6.76003 3.52 6.79003 3.17 7.10003 1.89C7.17003 1.59 7.33003 1.07 7.61003 0.880001C8.02003 0.610001 8.39003 0.830001 8.49003 1.01C8.61003 1.22 8.64003 1.66 8.58003 2.02C8.47003 2.63 8.07003 4.15 7.96003 4.72C7.88003 5.18 7.79003 5.81 7.71003 6.86C7.63003 7.85 7.40003 8.84 7.60003 9.31C7.73003 9.62 8.08003 9.61 8.40003 9.41C8.68003 9.24 8.98003 8.24 9.40003 7.33C9.80003 6.48 10.29 5.6 10.4 5.34C11.4 2.93 11.56 2.56 11.87 1.98C12.16 1.43 12.59 1.38 12.95 1.55C13.24 1.69 13.4 2.17 13.08 2.98C12.63 4.12 12.15 5.08 11.86 5.84C11.45 6.92 11.13 7.66 10.88 8.17C10.44 9.04 10.31 9.28 10.2 9.52C10.09 9.75 9.94003 10.35 10.22 10.61C10.47 10.84 11.03 10.86 11.58 10.28C12.09 9.74 12.57 9.14 13.21 8.43C13.62 7.97 14.12 7.48 14.62 6.9C15.21 6.21 15.63 5.42 16.3 4.81C16.54 4.59 16.94 4.57 17.15 4.73C17.31 4.85 17.42 5.15 17.36 5.45C17.3 5.75 16.94 6.35 16.73 6.61C16.27 7.19 16.07 7.46 15.58 8.01C15.03 8.63 14.7 9.11 14.37 9.48C13.98 9.92 13.59 10.36 13.02 10.99C12.7 11.34 11.86 12.41 11.64 12.87C11.42 13.34 11.14 13.77 11.03 14.4C10.92 14.99 10.99 15.47 11.13 15.93C11.29 16.42 11.9 17.11 12.45 17.18C13.15 17.26 13.92 17.32 14.84 17.04C15.81 16.75 16.57 16.4 17.71 16.66C18.56 16.86 18.65 17.05 18.85 17.25C19.1 17.5 19.18 17.95 18.96 18.13C18.73 18.31 18.19 18.47 17.69 18.54C16.8 18.66 15.66 18.67 14.92 18.69C14.18 18.71 13.33 18.93 12.81 19.15C12.16 19.42 11.17 19.68 10.8 19.85C10.68 19.91 9.88003 20.32 9.79003 20.37C9.39003 20.59 8.66003 20.88 8.18003 20.98C7.17003 21.19 6.35003 21.24 5.32003 21.14V21.18Z"/>
    </symbol>

</svg>


